# xmcd CD database file
#
# Track frame offsets:
#	150
#	37329
#	69277
#	91018
#	118055
#
# Disc length: 1719 seconds
#
# Revision: 1
# Processed by: cddbd v1.5.2PL0 Copyright (c) Steve Scherf et al.
# Submitted via: CDex 1.70beta3
#
DISCID=3c06b505
DTITLE=Coleman Hawkins - The Cool Jazz Collection 71
DYEAR=1900
DGENRE=Jazz
TTITLE0=All the Things You Are
TTITLE1=Bean And the Boys
TTITLE2=Quintessence
TTITLE3=One Note Samba
TTITLE4=Red Roses for a Blue Lady
EXTD=
EXTT0=
EXTT1=
EXTT2=
EXTT3=
EXTT4=
PLAYORDER=
